<svg width="18" height="18" viewBox="0 0 18 18" fill="none" xmlns="http://www.w3.org/2000/svg">
<path d="M15 9.20569C15 9.49046 14.7884 9.72581 14.5138 9.76305L14.4375 9.76819L3.1875 9.76819C2.87684 9.76819 2.625 9.51635 2.625 9.20569C2.625 8.92092 2.83662 8.68557 3.11117 8.64832L3.1875 8.64319L14.4375 8.64319C14.7482 8.64319 15 8.89503 15 9.20569Z" fill="#DA1414"/>
<path d="M8.12174 13.3254C8.34189 13.5446 8.34265 13.9008 8.12346 14.1209C7.92419 14.321 7.61173 14.3399 7.39117 14.1769L7.32796 14.1226L2.79046 9.60461C2.58974 9.40474 2.57148 9.09116 2.73569 8.8706L2.79043 8.80744L7.32793 4.28869C7.54805 4.06947 7.90421 4.07021 8.12342 4.29033C8.32271 4.49045 8.34022 4.80298 8.17637 5.02285L8.12178 5.08583L3.98475 9.20623L8.12174 13.3254Z" fill="#DA1414"/>
</svg>
