<svg width="15" height="16" viewBox="0 0 15 16" fill="none" xmlns="http://www.w3.org/2000/svg">
<path fill-rule="evenodd" clip-rule="evenodd" d="M7.68501 15.4994C6.66876 15.4994 5.67801 15.4881 4.69776 15.4679C3.44376 15.4431 2.57601 14.6301 2.43426 13.3461C2.19801 11.2161 1.79376 6.19563 1.79001 6.14538C1.76451 5.83563 1.99551 5.56413 2.30526 5.53938C2.61051 5.53113 2.88651 5.74563 2.91126 6.05463C2.91501 6.10563 3.31851 11.1089 3.55251 13.2224C3.63276 13.9521 4.02651 14.3286 4.72101 14.3429C6.59601 14.3826 8.50926 14.3849 10.5718 14.3474C11.3098 14.3331 11.7088 13.9641 11.7913 13.2171C12.0238 11.1216 12.4288 6.10563 12.4333 6.05463C12.458 5.74563 12.7318 5.52963 13.0385 5.53938C13.3483 5.56488 13.5793 5.83563 13.5545 6.14538C13.55 6.19638 13.1435 11.2296 12.9095 13.3409C12.764 14.6511 11.8985 15.4484 10.592 15.4724C9.59226 15.4896 8.62776 15.4994 7.68501 15.4994Z" fill="#DA1414"/>
<path fill-rule="evenodd" clip-rule="evenodd" d="M14.031 4.24219H1.3125C1.002 4.24219 0.75 3.99019 0.75 3.67969C0.75 3.36919 1.002 3.11719 1.3125 3.11719H14.031C14.3415 3.11719 14.5935 3.36919 14.5935 3.67969C14.5935 3.99019 14.3415 4.24219 14.031 4.24219Z" fill="#DA1414"/>
<path fill-rule="evenodd" clip-rule="evenodd" d="M11.5802 4.24175C10.7267 4.24175 9.98569 3.6335 9.81769 2.7965L9.63544 1.8845C9.59719 1.74575 9.43894 1.625 9.25894 1.625H6.08419C5.90419 1.625 5.74594 1.74575 5.70019 1.919L5.52544 2.7965C5.35819 3.6335 4.61644 4.24175 3.76294 4.24175C3.45244 4.24175 3.20044 3.98975 3.20044 3.67925C3.20044 3.36875 3.45244 3.11675 3.76294 3.11675C4.08244 3.11675 4.35994 2.88875 4.42294 2.57525L4.60519 1.66325C4.79044 0.96425 5.39569 0.5 6.08419 0.5H9.25894C9.94744 0.5 10.5527 0.96425 10.7304 1.6295L10.9209 2.57525C10.9832 2.88875 11.2607 3.11675 11.5802 3.11675C11.8907 3.11675 12.1427 3.36875 12.1427 3.67925C12.1427 3.98975 11.8907 4.24175 11.5802 4.24175Z" fill="#DA1414"/>
</svg>
