<svg width="18" height="18" viewBox="0 0 18 18" fill="none" xmlns="http://www.w3.org/2000/svg">
<path fill-rule="evenodd" clip-rule="evenodd" d="M11.7868 12.7302H6.37183C6.06133 12.7302 5.80933 12.4782 5.80933 12.1677C5.80933 11.8572 6.06133 11.6052 6.37183 11.6052H11.7868C12.0973 11.6052 12.3493 11.8572 12.3493 12.1677C12.3493 12.4782 12.0973 12.7302 11.7868 12.7302" fill="white"/>
<path fill-rule="evenodd" clip-rule="evenodd" d="M11.7868 9.59039H6.37183C6.06133 9.59039 5.80933 9.33839 5.80933 9.02789C5.80933 8.71739 6.06133 8.46539 6.37183 8.46539H11.7868C12.0973 8.46539 12.3493 8.71739 12.3493 9.02789C12.3493 9.33839 12.0973 9.59039 11.7868 9.59039" fill="white"/>
<path fill-rule="evenodd" clip-rule="evenodd" d="M8.43783 6.45776H6.37158C6.06108 6.45776 5.80908 6.20576 5.80908 5.89526C5.80908 5.58476 6.06108 5.33276 6.37158 5.33276H8.43783C8.74833 5.33276 9.00033 5.58476 9.00033 5.89526C9.00033 6.20576 8.74833 6.45776 8.43783 6.45776" fill="white"/>
<mask id="mask0_50_6588" style="mask-type:luminance" maskUnits="userSpaceOnUse" x="2" y="1" width="14" height="16">
<path fill-rule="evenodd" clip-rule="evenodd" d="M2.25 1.50012H15.8735V16.4325H2.25V1.50012Z" fill="white"/>
</mask>
<g mask="url(#mask0_50_6588)">
<path fill-rule="evenodd" clip-rule="evenodd" d="M11.9315 2.625L6.16476 2.628C4.41876 2.6385 3.37476 3.7185 3.37476 5.51775V12.4148C3.37476 14.226 4.42851 15.3075 6.19176 15.3075L11.9585 15.3052C13.7045 15.2947 14.7485 14.2133 14.7485 12.4148V5.51775C14.7485 3.7065 13.6955 2.625 11.9315 2.625ZM6.19251 16.4325C3.83451 16.4325 2.24976 14.8178 2.24976 12.4148V5.51775C2.24976 3.093 3.78501 1.51725 6.16101 1.503L11.9308 1.5H11.9315C14.2895 1.5 15.8735 3.11475 15.8735 5.51775V12.4148C15.8735 14.8388 14.3383 16.4153 11.9623 16.4303L6.19251 16.4325Z" fill="white"/>
</g>
</svg>
