<svg width="16" height="16" viewBox="0 0 16 16" fill="none" xmlns="http://www.w3.org/2000/svg">
<mask id="mask0_1002_10811" style="mask-type:luminance" maskUnits="userSpaceOnUse" x="0" y="0" width="16" height="16">
<path fill-rule="evenodd" clip-rule="evenodd" d="M0.500244 0.500122H15.4699V15.4625H0.500244V0.500122Z" fill="white"/>
</mask>
<g mask="url(#mask0_1002_10811)">
<path fill-rule="evenodd" clip-rule="evenodd" d="M4.73774 1.625C2.84699 1.625 1.62524 2.92025 1.62524 4.92425V11.0382C1.62524 13.043 2.84699 14.3375 4.73774 14.3375H11.2252C13.1205 14.3375 14.3452 13.043 14.3452 11.0382V4.92425C14.3452 2.92025 13.1205 1.625 11.2252 1.625H4.73774ZM11.2252 15.4625H4.73774C2.20274 15.4625 0.500244 13.6843 0.500244 11.0383V4.92425C0.500244 2.27825 2.20274 0.5 4.73774 0.5H11.2252C13.764 0.5 15.4702 2.27825 15.4702 4.92425V11.0383C15.4702 13.6843 13.764 15.4625 11.2252 15.4625V15.4625Z" fill="white"/>
</g>
<path fill-rule="evenodd" clip-rule="evenodd" d="M2.96094 11.8853C2.82144 11.8853 2.68269 11.8343 2.57394 11.7308C2.34819 11.5178 2.33919 11.1608 2.55294 10.9365L3.69894 9.72678C4.30569 9.08253 5.32944 9.05103 5.97669 9.65853L6.69519 10.3875C6.89544 10.59 7.22094 10.5938 7.42194 10.3958C7.49769 10.3065 9.13119 8.32278 9.13119 8.32278C9.44169 7.94628 9.87969 7.71378 10.3664 7.66578C10.8539 7.62303 11.3272 7.76478 11.7044 8.07453C11.7367 8.10078 11.7659 8.12628 13.4129 9.81753C13.6297 10.0395 13.6259 10.3958 13.4032 10.6125C13.1812 10.8308 12.8242 10.824 12.6074 10.602C12.6074 10.602 11.0707 9.02478 10.9612 8.91828C10.8449 8.82303 10.6582 8.76753 10.4744 8.78553C10.2877 8.80428 10.1197 8.89353 10.0004 9.03828C8.25744 11.1525 8.23644 11.1728 8.20794 11.2005C7.56444 11.832 6.52569 11.8215 5.89344 11.1765C5.89344 11.1765 5.19594 10.4685 5.18394 10.4543C5.01069 10.2938 4.70169 10.3043 4.51644 10.5L3.36894 11.7098C3.25794 11.8268 3.10944 11.8853 2.96094 11.8853V11.8853Z" fill="white"/>
<path fill-rule="evenodd" clip-rule="evenodd" d="M5.41814 5.09662C5.00339 5.09662 4.66589 5.43412 4.66589 5.84962C4.66589 6.26512 5.00339 6.60337 5.41889 6.60337C5.83439 6.60337 6.17264 6.26512 6.17264 5.84962C6.17264 5.43487 5.83439 5.09737 5.41814 5.09662M5.41889 7.72837C4.38314 7.72837 3.54089 6.88537 3.54089 5.84962C3.54089 4.81387 4.38314 3.97162 5.41889 3.97162C6.45539 3.97237 7.29764 4.81537 7.29764 5.84962C7.29764 6.88537 6.45464 7.72837 5.41889 7.72837" fill="white"/>
</svg>
