<svg width="16" height="14" viewBox="0 0 16 14" fill="none" xmlns="http://www.w3.org/2000/svg">
<path fill-rule="evenodd" clip-rule="evenodd" d="M7.655 13.9159C7.65523 13.9161 7.65543 13.9162 8 13.25C8.34457 13.9162 8.34477 13.9161 8.34501 13.9159C8.12889 14.0277 7.87111 14.0277 7.655 13.9159ZM7.655 13.9159L8 13.25L8.34501 13.9159L8.34731 13.9147L8.35269 13.9119L8.37117 13.9022C8.38687 13.8939 8.40926 13.882 8.4379 13.8665C8.49516 13.8356 8.57746 13.7904 8.6812 13.7317C8.8886 13.6142 9.18229 13.442 9.53358 13.2199C10.2346 12.7767 11.1728 12.13 12.1147 11.3181C13.9554 9.7312 16 7.35031 16 4.5C16 1.83579 13.9142 0 11.75 0C10.2026 0 8.84711 0.80151 8 2.01995C7.15289 0.80151 5.79736 0 4.25 0C2.08579 0 0 1.83579 0 4.5C0 7.35031 2.04459 9.7312 3.8853 11.3181C4.82717 12.13 5.76538 12.7767 6.46642 13.2199C6.81771 13.442 7.1114 13.6142 7.3188 13.7317C7.42254 13.7904 7.50484 13.8356 7.5621 13.8665C7.59074 13.882 7.61313 13.8939 7.62883 13.9022L7.64731 13.9119L7.65269 13.9147L7.655 13.9159Z" fill="#F55050"/>
</svg>
