<svg width="18" height="18" viewBox="0 0 18 18" fill="none" xmlns="http://www.w3.org/2000/svg">
<path fill-rule="evenodd" clip-rule="evenodd" d="M4.78125 2.8125C3.27849 2.8125 1.6875 4.12224 1.6875 6.1875C1.6875 8.6059 3.46546 10.8492 5.47279 12.5796C6.45225 13.4241 7.43582 14.1028 8.17646 14.571C8.50958 14.7816 8.79179 14.9484 9 15.0676C9.20821 14.9484 9.49042 14.7816 9.82355 14.571C10.5642 14.1028 11.5478 13.4241 12.5272 12.5796C14.5345 10.8492 16.3125 8.6059 16.3125 6.1875C16.3125 4.12224 14.7215 2.8125 13.2188 2.8125C11.6739 2.8125 10.2839 3.92154 9.81128 5.57554C9.70779 5.93777 9.37672 6.1875 9 6.1875C8.62328 6.1875 8.29221 5.93777 8.18872 5.57554C7.71614 3.92154 6.32609 2.8125 4.78125 2.8125ZM9 16.0312C8.61236 16.7807 8.61213 16.7806 8.61188 16.7804L8.60928 16.779L8.60322 16.7759L8.58243 16.765C8.56477 16.7556 8.53958 16.7422 8.50736 16.7248C8.44294 16.6901 8.35036 16.6392 8.23365 16.5732C8.00033 16.441 7.66992 16.2473 7.27472 15.9974C6.48605 15.4988 5.43057 14.7712 4.37096 13.8579C2.30016 12.0726 0 9.3941 0 6.1875C0 3.19026 2.34651 1.125 4.78125 1.125C6.52203 1.125 8.047 2.0267 9 3.39744C9.953 2.0267 11.4779 1.125 13.2188 1.125C15.6535 1.125 18 3.19026 18 6.1875C18 9.3941 15.6998 12.0726 13.629 13.8579C12.5694 14.7712 11.5139 15.4988 10.7253 15.9974C10.3301 16.2473 9.99967 16.441 9.76635 16.5732C9.64964 16.6392 9.55707 16.6901 9.49264 16.7248C9.46042 16.7422 9.43523 16.7556 9.41757 16.765L9.39678 16.7759L9.39072 16.779L9.38814 16.7804C9.38787 16.7806 9.38764 16.7807 9 16.0312ZM9 16.0312L9.38814 16.7804C9.145 16.9062 8.855 16.9062 8.61188 16.7804L9 16.0312Z" fill="#DA1414"/>
</svg>
