<svg width="18" height="18" viewBox="0 0 18 18" fill="none" xmlns="http://www.w3.org/2000/svg">
<path fill-rule="evenodd" clip-rule="evenodd" d="M6.22397 0.183945C6.40644 0.366429 6.45868 0.641975 6.35567 0.878582C5.93846 1.83682 5.76386 2.99167 5.76386 4.16996C5.76386 8.62465 9.37535 12.2361 13.83 12.2361C15.0083 12.2361 16.1632 12.0615 17.1214 11.6443C17.358 11.5413 17.6336 11.5936 17.8161 11.776C17.9985 11.9585 18.0508 12.234 17.9478 12.4707C16.5063 15.7822 13.1346 18 9.322 18C4.17374 18 0 13.8263 0 8.67801C0 4.86544 2.21778 1.49372 5.52935 0.0521996C5.76596 -0.0507994 6.0415 0.00146073 6.22397 0.183945ZM4.7212 1.93425C2.61182 3.39803 1.25581 5.89255 1.25581 8.67801C1.25581 13.1327 4.86731 16.7442 9.322 16.7442C12.1075 16.7442 14.602 15.3882 16.0658 13.2788C15.3318 13.4293 14.5721 13.492 13.83 13.492C8.68179 13.492 4.50805 9.31822 4.50805 4.16996C4.50805 3.42792 4.57073 2.66817 4.7212 1.93425Z" fill="#404156"/>
</svg>
