<svg width="18" height="21" viewBox="0 0 18 21" fill="none" xmlns="http://www.w3.org/2000/svg">
<mask id="mask0_1002_5904" style="mask-type:luminance" maskUnits="userSpaceOnUse" x="0" y="0" width="18" height="17">
<path fill-rule="evenodd" clip-rule="evenodd" d="M0.75 0.916687H17.7055V16.819H0.75V0.916687Z" fill="white"/>
</mask>
<g mask="url(#mask0_1002_5904)">
<path fill-rule="evenodd" clip-rule="evenodd" d="M9.22643 2.29169C6.02268 2.29169 3.78968 4.80152 3.78968 7.05377C3.78968 8.95952 3.26076 9.84044 2.79326 10.6178C2.41835 11.242 2.12226 11.7352 2.12226 12.8068C2.27535 14.5356 3.4166 15.444 9.22643 15.444C15.0042 15.444 16.1812 14.4953 16.3333 12.7472C16.3306 11.7352 16.0345 11.242 15.6596 10.6178C15.1921 9.84044 14.6632 8.95952 14.6632 7.05377C14.6632 4.80152 12.4302 2.29169 9.22643 2.29169ZM9.22643 16.819C4.94009 16.819 1.06626 16.5165 0.750012 12.8654C0.747262 11.3548 1.20835 10.5866 1.61535 9.9101C2.02693 9.22444 2.41468 8.57819 2.41468 7.05377C2.41468 4.09019 5.15184 0.916687 9.22643 0.916687C13.301 0.916687 16.0382 4.09019 16.0382 7.05377C16.0382 8.57819 16.4259 9.22444 16.8375 9.9101C17.2445 10.5866 17.7056 11.3548 17.7056 12.8068C17.3857 16.5165 13.5128 16.819 9.22643 16.819Z" fill="#404156"/>
</g>
<path fill-rule="evenodd" clip-rule="evenodd" d="M9.18169 20.625H9.17985C8.15227 20.6241 7.17969 20.1712 6.44177 19.349C6.18785 19.0676 6.21077 18.6322 6.4931 18.3792C6.77544 18.1243 7.20994 18.1472 7.46385 18.4305C7.93869 18.9594 8.54827 19.25 9.18077 19.25H9.18169C9.81694 19.25 10.4293 18.9594 10.905 18.4296C11.1599 18.1482 11.5944 18.1252 11.8758 18.3792C12.1581 18.6331 12.181 19.0685 11.9271 19.3499C11.1864 20.1722 10.212 20.625 9.18169 20.625Z" fill="#404156"/>
</svg>
