<svg width="18" height="18" viewBox="0 0 18 18" fill="none" xmlns="http://www.w3.org/2000/svg">
<mask id="mask0_48_13447" style="mask-type:luminance" maskUnits="userSpaceOnUse" x="1" y="1" width="15" height="17">
<path fill-rule="evenodd" clip-rule="evenodd" d="M1.5 1.50037H15.9636V17.0411H1.5V1.50037Z" fill="white"/>
</mask>
<g mask="url(#mask0_48_13447)">
<path fill-rule="evenodd" clip-rule="evenodd" d="M5.40174 13.0804C5.57349 13.0804 5.74524 13.1021 5.91324 13.1471C6.42024 13.2836 6.86049 13.6226 7.12149 14.0779C7.29099 14.3636 7.38474 14.6974 7.38774 15.0379C7.38774 15.5254 7.77924 15.9161 8.26074 15.9161H9.20049C9.67974 15.9161 10.0712 15.5276 10.0735 15.0484C10.0705 14.5189 10.2775 14.0156 10.6562 13.6369C11.0297 13.2634 11.5517 13.0391 12.0737 13.0541C12.4157 13.0624 12.745 13.1546 13.0352 13.3196C13.453 13.5589 13.9862 13.4164 14.2277 13.0039L14.7257 12.1736C14.8367 11.9824 14.869 11.7424 14.8097 11.5211C14.7512 11.2999 14.6042 11.1079 14.4062 10.9946C13.9427 10.7276 13.612 10.2971 13.4747 9.78112C13.339 9.27487 13.4132 8.72212 13.678 8.26687C13.8505 7.96687 14.1032 7.71412 14.4062 7.54012C14.8127 7.30237 14.9552 6.77062 14.719 6.35662C14.7092 6.34012 14.7002 6.32287 14.6927 6.30487L14.2532 5.54287C14.014 5.12662 13.4815 4.98337 13.0637 5.22112C12.6122 5.48812 12.0752 5.56462 11.5592 5.42887C11.044 5.29537 10.612 4.96912 10.3427 4.50862C10.1702 4.22062 10.0765 3.88537 10.0735 3.54412C10.0802 3.28762 9.99024 3.05737 9.82674 2.88862C9.66399 2.72062 9.43524 2.62537 9.20049 2.62537H8.26074C8.02824 2.62537 7.81074 2.71612 7.64649 2.87962C7.48299 3.04387 7.39374 3.26212 7.39524 3.49462C7.37949 4.59112 6.48324 5.47387 5.39799 5.47387C5.04999 5.47012 4.71474 5.37637 4.42374 5.20237C4.01499 4.96987 3.48099 5.11312 3.24174 5.52937L2.73399 6.36412C2.50149 6.76762 2.64399 7.30087 3.05799 7.54162C3.67224 7.89712 4.05549 8.56012 4.05549 9.27112C4.05549 9.98212 3.67224 10.6444 3.05649 11.0006C2.64474 11.2391 2.50224 11.7694 2.74074 12.1819L3.21399 12.9979C3.33099 13.2086 3.52224 13.3609 3.74349 13.4231C3.96399 13.4846 4.20699 13.4584 4.40949 13.3459C4.70724 13.1711 5.05374 13.0804 5.40174 13.0804M9.20049 17.0411H8.26074C7.15899 17.0411 6.26274 16.1456 6.26274 15.0439C6.26124 14.9081 6.22224 14.7671 6.14949 14.6449C6.03174 14.4394 5.84124 14.2924 5.62149 14.2339C5.40324 14.1754 5.16399 14.2076 4.96749 14.3216C4.49649 14.5841 3.94224 14.6479 3.43524 14.5054C2.92899 14.3621 2.49174 14.0141 2.23524 13.5529L1.76649 12.7451C1.21824 11.7941 1.54449 10.5754 2.49399 10.0264C2.76324 9.87112 2.93049 9.58162 2.93049 9.27112C2.93049 8.96062 2.76324 8.67037 2.49399 8.51512C1.54374 7.96312 1.21824 6.74137 1.76574 5.79037L2.27424 4.95562C2.81499 4.01512 4.03749 3.68362 4.99074 4.23112C5.12049 4.30837 5.26149 4.34737 5.40474 4.34887C5.87199 4.34887 6.26274 3.96337 6.27024 3.48937C6.26724 2.96662 6.47349 2.46487 6.84924 2.08612C7.22649 1.70812 7.72749 1.50037 8.26074 1.50037H9.20049C9.73749 1.50037 10.2595 1.72087 10.6337 2.10412C11.0072 2.48962 11.2135 3.01837 11.1977 3.55462C11.1992 3.67537 11.239 3.81487 11.311 3.93712C11.4302 4.13962 11.6185 4.28212 11.842 4.34062C12.0655 4.39612 12.2995 4.36612 12.4982 4.24837C13.4582 3.70012 14.68 4.02862 15.2282 4.98112L15.6955 5.79037C15.7075 5.81212 15.718 5.83312 15.727 5.85487C16.2235 6.79312 15.892 7.97437 14.9695 8.51362C14.8352 8.59087 14.7265 8.69887 14.6515 8.82937C14.5352 9.03112 14.503 9.27112 14.5615 9.49162C14.6215 9.71662 14.7647 9.90337 14.9665 10.0189C15.4217 10.2806 15.7615 10.7216 15.8972 11.2309C16.033 11.7394 15.9587 12.2914 15.694 12.7466L15.196 13.5761C14.6477 14.5181 13.426 14.8444 12.4757 14.2954C12.349 14.2226 12.2027 14.1829 12.0572 14.1791H12.0527C11.836 14.1791 11.6132 14.2714 11.4512 14.4326C11.287 14.5969 11.197 14.8159 11.1985 15.0484C11.1932 16.1501 10.297 17.0411 9.20049 17.0411" fill="white"/>
</g>
<path fill-rule="evenodd" clip-rule="evenodd" d="M8.73384 7.85596C7.95384 7.85596 7.31934 8.49121 7.31934 9.27121C7.31934 10.0512 7.95384 10.685 8.73384 10.685C9.51384 10.685 10.1483 10.0512 10.1483 9.27121C10.1483 8.49121 9.51384 7.85596 8.73384 7.85596M8.73384 11.81C7.33359 11.81 6.19434 10.6715 6.19434 9.27121C6.19434 7.87096 7.33359 6.73096 8.73384 6.73096C10.1341 6.73096 11.2733 7.87096 11.2733 9.27121C11.2733 10.6715 10.1341 11.81 8.73384 11.81" fill="white"/>
</svg>
