<svg width="16" height="16" viewBox="0 0 16 16" fill="none" xmlns="http://www.w3.org/2000/svg">
<path d="M12.4389 9.74006C12.2447 9.92831 12.1554 10.2006 12.1997 10.4676L12.8664 14.1576C12.9227 14.4703 12.7907 14.7868 12.5289 14.9676C12.2724 15.1551 11.9312 15.1776 11.6514 15.0276L8.32966 13.2951C8.21416 13.2336 8.08591 13.2006 7.95466 13.1968H7.75141C7.68091 13.2073 7.61191 13.2298 7.54891 13.2643L4.22641 15.0051C4.06216 15.0876 3.87616 15.1168 3.69391 15.0876C3.24991 15.0036 2.95366 14.5806 3.02641 14.1343L3.69391 10.4443C3.73816 10.1751 3.64891 9.90131 3.45466 9.71006L0.746413 7.08506C0.519913 6.86531 0.441163 6.53531 0.544663 6.23756C0.645163 5.94056 0.901663 5.72381 1.21141 5.67506L4.93891 5.13431C5.22241 5.10506 5.47141 4.93256 5.59891 4.67756L7.24141 1.31006C7.28041 1.23506 7.33066 1.16606 7.39141 1.10756L7.45891 1.05506C7.49416 1.01606 7.53466 0.983811 7.57966 0.957561L7.66141 0.927561L7.78891 0.875061H8.10466C8.38666 0.904311 8.63491 1.07306 8.76466 1.32506L10.4289 4.67756C10.5489 4.92281 10.7822 5.09306 11.0514 5.13431L14.7789 5.67506C15.0939 5.72006 15.3572 5.93756 15.4614 6.23756C15.5597 6.53831 15.4749 6.86831 15.2439 7.08506L12.4389 9.74006Z" fill="#DA1414"/>
</svg>
