<svg width="16" height="16" viewBox="0 0 16 16" fill="none" xmlns="http://www.w3.org/2000/svg">
<g clip-path="url(#clip0_50_8396)">
<path fill-rule="evenodd" clip-rule="evenodd" d="M16 8C16 12.4183 12.4183 16 8 16C3.58172 16 0 12.4183 0 8C0 3.58172 3.58172 0 8 0C12.4183 0 16 3.58172 16 8ZM8.28662 5.90597C7.5085 6.22962 5.95336 6.89948 3.62119 7.91557C3.24249 8.06617 3.0441 8.2135 3.02604 8.35756C2.99552 8.60102 3.30041 8.69689 3.71558 8.82744C3.77206 8.84519 3.83057 8.86359 3.89056 8.88309C4.29902 9.01587 4.84848 9.1712 5.13412 9.17737C5.39323 9.18297 5.68242 9.07615 6.00169 8.85691C8.18071 7.38602 9.30552 6.64256 9.37614 6.62653C9.42596 6.61523 9.495 6.60101 9.54178 6.64258C9.58855 6.68416 9.58396 6.7629 9.579 6.78402C9.5488 6.91278 8.35202 8.02541 7.73268 8.6012C7.53961 8.78071 7.40265 8.90803 7.37465 8.93711C7.31194 9.00225 7.24802 9.06387 7.18659 9.12309C6.80711 9.48891 6.52254 9.76324 7.20234 10.2112C7.52902 10.4265 7.79044 10.6045 8.05123 10.7821C8.33605 10.9761 8.62012 11.1695 8.98768 11.4105C9.08132 11.4718 9.17075 11.5356 9.25786 11.5977C9.58931 11.834 9.8871 12.0463 10.255 12.0124C10.4688 11.9928 10.6896 11.7918 10.8017 11.1923C11.0667 9.77545 11.5877 6.70566 11.7081 5.44067C11.7186 5.32984 11.7054 5.188 11.6947 5.12574C11.684 5.06347 11.6618 4.97476 11.5808 4.90909C11.485 4.83131 11.337 4.81491 11.2708 4.81608C10.9699 4.82138 10.5083 4.9819 8.28662 5.90597Z" fill="#9F9F9F"/>
</g>
<defs>
<clipPath id="clip0_50_8396">
<rect width="16" height="16" fill="white"/>
</clipPath>
</defs>
</svg>
