<svg width="18" height="18" viewBox="0 0 18 18" fill="none" xmlns="http://www.w3.org/2000/svg">
<mask id="mask0_3_457" style="mask-type:luminance" maskUnits="userSpaceOnUse" x="1" y="3" width="13" height="13">
<path fill-rule="evenodd" clip-rule="evenodd" d="M1.50024 3.75024H13.1255V15.3763H1.50024V3.75024Z" fill="white"/>
</mask>
<g mask="url(#mask0_3_457)">
<path fill-rule="evenodd" clip-rule="evenodd" d="M5.13557 4.87625C4.80632 4.87625 4.59407 4.87625 4.55732 4.87775C4.00382 4.901 3.49307 5.13575 3.12482 5.53775C2.78132 5.9135 2.60432 6.3935 2.62757 6.8915C2.62757 9.06125 2.62832 12.3178 2.63357 12.4963C2.71907 13.535 3.69257 14.3293 4.80707 14.2438C6.86957 14.2468 9.92507 14.2535 10.0683 14.2483C10.6196 14.2258 11.1311 13.9918 11.4993 13.5905C11.8436 13.2163 12.0206 12.7363 11.9988 12.2405C11.9981 12.2323 11.9981 12.224 11.9981 12.2158C11.9988 10.0708 11.9988 6.8165 11.9936 6.64175C11.9088 5.59775 10.9308 4.79375 9.81032 4.8815C8.26082 4.87925 6.14657 4.87625 5.13557 4.87625M4.60982 15.3763C3.02432 15.377 1.64132 14.162 1.51082 12.5683C1.50857 12.5375 1.50107 12.4438 1.50332 6.917C1.46732 6.14375 1.74782 5.37575 2.29532 4.778C2.86682 4.154 3.65507 3.79025 4.51532 3.7535C4.61957 3.746 8.22557 3.755 9.76982 3.758C11.4573 3.6395 12.9806 4.892 13.1163 6.57275C13.1223 6.6545 13.1246 8.54825 13.1231 12.2045C13.1546 12.9965 12.8726 13.7593 12.3281 14.3518C11.7558 14.975 10.9668 15.3373 10.1073 15.3725C10.0023 15.38 6.39482 15.3703 4.84832 15.3673C4.76882 15.3733 4.68932 15.3763 4.60982 15.3763" fill="white"/>
</g>
<path fill-rule="evenodd" clip-rule="evenodd" d="M15.6139 13.762C15.2756 13.762 14.9419 13.6457 14.6666 13.42L12.2059 11.398C11.9659 11.2007 11.9314 10.846 12.1286 10.606C12.3251 10.3667 12.6799 10.3307 12.9199 10.5287L15.3799 12.5507C15.5456 12.6857 15.7121 12.6302 15.7766 12.5987C15.8411 12.5687 15.9904 12.475 15.9904 12.262L15.9994 6.75023C16.0001 6.53723 15.8501 6.44348 15.7856 6.41273C15.7219 6.38273 15.5531 6.32648 15.3889 6.46148L12.9191 8.48273C12.6776 8.67998 12.3244 8.64473 12.1279 8.40323C11.9306 8.16323 11.9666 7.80923 12.2066 7.61273L14.6764 5.59073C15.1294 5.21948 15.7391 5.14673 16.2679 5.39648C16.7966 5.64773 17.1251 6.16673 17.1244 6.75173L17.1154 12.2635C17.1146 12.8485 16.7854 13.3675 16.2574 13.6165C16.0504 13.7147 15.8314 13.762 15.6139 13.762" fill="white"/>
</svg>
