<svg width="16" height="16" viewBox="0 0 16 16" fill="none" xmlns="http://www.w3.org/2000/svg">
<g clip-path="url(#clip0_1002_7289)">
<path fill-rule="evenodd" clip-rule="evenodd" d="M16 8C16 12.4183 12.4183 16 8 16C3.58172 16 0 12.4183 0 8C0 3.58172 3.58172 0 8 0C12.4183 0 16 3.58172 16 8ZM8.28662 5.90595C7.5085 6.2296 5.95336 6.89947 3.62119 7.91555C3.24249 8.06615 3.0441 8.21348 3.02604 8.35754C2.99552 8.601 3.30041 8.69687 3.71558 8.82742C3.77206 8.84518 3.83057 8.86357 3.89056 8.88307C4.29902 9.01585 4.84848 9.17119 5.13412 9.17736C5.39323 9.18295 5.68242 9.07613 6.00169 8.8569C8.18071 7.386 9.30552 6.64254 9.37614 6.62651C9.42596 6.61521 9.495 6.60099 9.54178 6.64257C9.58855 6.68414 9.58396 6.76288 9.579 6.78401C9.5488 6.91276 8.35202 8.02539 7.73268 8.60118C7.53961 8.78069 7.40265 8.90802 7.37465 8.93709C7.31193 9.00223 7.24802 9.06385 7.18659 9.12307C6.80711 9.48889 6.52254 9.76322 7.20234 10.2112C7.52902 10.4265 7.79043 10.6045 8.05122 10.7821C8.33604 10.976 8.62012 11.1695 8.98768 11.4104C9.08132 11.4718 9.17075 11.5356 9.25786 11.5977C9.58931 11.834 9.8871 12.0463 10.255 12.0124C10.4688 11.9928 10.6896 11.7917 10.8017 11.1922C11.0667 9.77543 11.5877 6.70564 11.7081 5.44065C11.7186 5.32982 11.7054 5.18798 11.6947 5.12572C11.684 5.06345 11.6618 4.97474 11.5808 4.90907C11.485 4.83129 11.337 4.81489 11.2708 4.81606C10.9699 4.82136 10.5083 4.98188 8.28662 5.90595Z" fill="#ABABAB"/>
</g>
<defs>
<clipPath id="clip0_1002_7289">
<rect width="16" height="16" fill="white"/>
</clipPath>
</defs>
</svg>
