<svg width="16" height="14" viewBox="0 0 16 14" fill="none" xmlns="http://www.w3.org/2000/svg">
<path d="M5.03344 13.5005C11.0697 13.5005 14.3722 8.49829 14.3722 4.16173C14.3722 4.0211 14.3691 3.87735 14.3628 3.73673C15.0052 3.27213 15.5597 2.69666 16 2.03735C15.4017 2.30355 14.7664 2.47741 14.1159 2.55298C14.8009 2.14243 15.3137 1.49747 15.5594 0.737666C14.915 1.11953 14.2104 1.3889 13.4756 1.53423C12.9806 1.0082 12.326 0.659899 11.6131 0.543189C10.9003 0.426479 10.1688 0.547855 9.53183 0.888553C8.89486 1.22925 8.38787 1.77029 8.08923 2.42803C7.7906 3.08577 7.71695 3.82356 7.87969 4.52735C6.575 4.46188 5.29862 4.12296 4.13332 3.53255C2.96802 2.94215 1.9398 2.11345 1.11531 1.10017C0.696266 1.82265 0.568038 2.67758 0.756687 3.49122C0.945337 4.30485 1.43671 5.01612 2.13094 5.48048C1.60975 5.46393 1.09998 5.32361 0.64375 5.0711V5.11173C0.643283 5.86992 0.905399 6.60488 1.38554 7.19167C1.86568 7.77846 2.53422 8.18086 3.2775 8.33048C2.7947 8.46257 2.28799 8.48182 1.79656 8.38673C2.0063 9.03878 2.41438 9.60908 2.96385 10.018C3.51331 10.427 4.17675 10.6542 4.86156 10.668C3.69895 11.5812 2.26278 12.0766 0.784375 12.0742C0.522191 12.0738 0.260266 12.0578 0 12.0261C1.5019 12.9897 3.24902 13.5014 5.03344 13.5005Z" fill="#ABABAB"/>
</svg>
